<svg width="120" height="120" viewBox="0 0 120 120" fill="none" xmlns="http://www.w3.org/2000/svg">
<circle cx="60" cy="60" r="60" fill="white"/>
<g clip-path="url(#clip0_6_13)">
<path d="M60 118C92.0325 118 118 92.0325 118 60C118 27.9675 92.0325 2 60 2C27.9675 2 2 27.9675 2 60C2 92.0325 27.9675 118 60 118Z" fill="url(#paint0_linear_6_13)"/>
<path d="M85.5788 43.1649C80.8671 43.1649 77.0464 46.1498 77.0464 49.8328V72.0592C77.0464 75.0258 75.981 77.276 74.1808 78.0751C73.2899 78.4792 72.298 78.47 71.3888 78.0475C69.5702 77.2209 68.5048 74.9983 68.5232 72.05V56.5926C68.5232 52.9096 64.7024 48.3173 59.9908 48.3173C55.2792 48.3173 51.4584 52.533 51.4584 56.216V72.05C51.4584 75.0166 50.393 77.2668 48.5929 78.0659C47.702 78.47 46.71 78.4608 45.8008 78.0383C43.9823 77.2117 42.9169 74.9891 42.9352 72.0409V49.8144C42.9352 46.1314 39.1145 43.1465 34.4028 43.1465C29.6912 43.1465 25.8705 46.1314 25.8705 49.8144V72.0041C25.8062 79.8569 29.9392 86.2584 37.2041 89.5648C40.3452 90.9976 43.7894 91.714 47.2244 91.714C50.6594 91.714 53.9933 91.0252 57.0793 89.6292C58.1172 89.1607 59.0815 88.628 59.9908 88.0402C60.8633 88.6005 61.791 89.1148 62.7737 89.5648C65.9148 90.9976 69.359 91.714 72.794 91.714C76.229 91.714 79.5629 91.0252 82.6489 89.6292C89.9047 86.3687 94.0744 79.9579 94.0744 72.0409V49.8144C94.0744 46.1314 90.2537 43.1465 85.542 43.1465L85.5788 43.1649Z" fill="white"/>
<path d="M34.5498 40.6207C38.6027 40.6207 41.8882 37.3352 41.8882 33.2823C41.8882 29.2295 38.6027 25.9439 34.5498 25.9439C30.4969 25.9439 27.2114 29.2295 27.2114 33.2823C27.2114 37.3352 30.4969 40.6207 34.5498 40.6207Z" fill="white"/>
<path d="M60 45.8284C64.0529 45.8284 67.3384 42.5428 67.3384 38.49C67.3384 34.4371 64.0529 31.1516 60 31.1516C55.9471 31.1516 52.6616 34.4371 52.6616 38.49C52.6616 42.5428 55.9471 45.8284 60 45.8284Z" fill="white"/>
<path d="M85.4502 40.6207C89.5031 40.6207 92.7886 37.3352 92.7886 33.2823C92.7886 29.2295 89.5031 25.9439 85.4502 25.9439C81.3973 25.9439 78.1118 29.2295 78.1118 33.2823C78.1118 37.3352 81.3973 40.6207 85.4502 40.6207Z" fill="white"/>
</g>
<defs>
<linearGradient id="paint0_linear_6_13" x1="118" y1="60" x2="2" y2="60" gradientUnits="userSpaceOnUse">
<stop offset="0.13" stop-color="#F9B337"/>
<stop offset="0.4" stop-color="#EE8B33"/>
<stop offset="0.56" stop-color="#E97A32"/>
<stop offset="1" stop-color="#DD4923"/>
</linearGradient>
<clipPath id="clip0_6_13">
<rect width="116" height="116" fill="white" transform="translate(2 2)"/>
</clipPath>
</defs>
</svg>
